<?xml version="1.0" encoding="UTF-8"?>
<svg id="Layer_1" data-name="Layer 1" xmlns="http://www.w3.org/2000/svg" viewBox="0 0 317.42 47.24">
  <defs>
    <style>
      .cls-1 {
        fill: #fffffb;
      }

      .cls-2 {
        fill: #808285;
      }
    </style>
  </defs>
  <g>
    <path class="cls-1" d="m37.92,27.4c-.06.17-.17.26-.35.26h-4.09c-.12,0-.28-.19-.48-.56L24.44,4.78l-8.39,22.35c-.2.35-.38.52-.52.52h-4.3c-.23,0-.36-.09-.39-.26L0,.7v-.13C0,.28.14.13.44.13h3.17c.14,0,.32.22.52.65l9.17,23.26L22.26.74c.2-.4.38-.61.52-.61h3.22c.14,0,.32.2.52.61l9,23.31L44.79.78c.2-.43.38-.65.52-.65h3.22c.23,0,.35.14.35.43v.13l-10.96,26.7Z"/>
    <path class="cls-1" d="m78.05,27.66c-.23,0-.35-.13-.35-.39v-11.96h-22.57v11.96c0,.26-.13.39-.39.39h-2.74c-.26,0-.39-.13-.39-.39V.57c0-.29.13-.43.39-.43h2.74c.26,0,.39.14.39.43v11.13h22.57V.57c0-.29.12-.43.35-.43h2.78c.23,0,.35.14.35.43v26.7c0,.26-.12.39-.35.39h-2.78Z"/>
    <path class="cls-1" d="m84.66,27.66c-.23,0-.35-.13-.35-.39V.57c0-.29.12-.43.35-.43h2.13c.2,0,.3.14.3.43v26.7c0,.26-.1.39-.3.39h-2.13Z"/>
    <path class="cls-1" d="m105.1,3.74v23.52c0,.26-.13.39-.39.39h-2.74c-.23,0-.35-.13-.35-.39V3.74h-12.39c-.29,0-.44-.14-.44-.44V.57c0-.29.14-.43.44-.43h28.31c.29,0,.43.14.43.43v2.74c0,.29-.14.44-.43.44h-12.44Z"/>
    <path class="cls-1" d="m120.14,27.66c-.26,0-.39-.13-.39-.39V.57c0-.29.13-.43.39-.43h23.22c.23,0,.35.14.35.43v2.74c0,.29-.12.44-.35.44h-20.09v7.96h19.44c.23,0,.35.15.35.44v2.74c0,.29-.12.44-.35.44h-19.44v8.78h20.09c.23,0,.35.13.35.39v2.78c0,.26-.12.39-.35.39h-23.22Z"/>
    <path class="cls-1" d="m182.8,27.66c-.23,0-.35-.13-.35-.39v-11.96h-22.57v11.96c0,.26-.13.39-.39.39h-2.74c-.26,0-.39-.13-.39-.39V.57c0-.29.13-.43.39-.43h2.74c.26,0,.39.14.39.43v11.13h22.57V.57c0-.29.12-.43.35-.43h2.78c.23,0,.35.14.35.43v26.7c0,.26-.12.39-.35.39h-2.78Z"/>
    <path class="cls-1" d="m220.5,19.78c-.17,1.36-.46,2.49-.87,3.39-.43.87-1.02,1.61-1.74,2.24s-1.58,1.08-2.57,1.37v.04c-.84.26-1.93.46-3.26.61s-2.96.22-4.87.22h-4.22c-4.41,0-7.46-.4-9.17-1.22-1.91-.84-3.2-2.39-3.87-4.65-.23-.84-.4-2.01-.5-3.52-.1-1.51-.15-3.38-.15-5.61,0-1.83.08-3.42.24-4.78.16-1.36.44-2.48.85-3.35.44-.87,1.01-1.61,1.72-2.24.71-.62,1.59-1.11,2.63-1.46h.04c1.62-.55,4.36-.83,8.22-.83h4.22c4.23,0,7.27.42,9.13,1.26.93.4,1.72,1,2.37,1.78.65.78,1.14,1.75,1.46,2.91.17.81.32,1.97.43,3.48.12,1.51.17,3.38.17,5.61,0,1.8-.09,3.38-.26,4.74Zm-3.22-7.13c0-1.48-.06-2.75-.17-3.83-.12-1.07-.33-1.91-.65-2.52-.41-1.19-1.32-1.94-2.74-2.26-1.13-.29-3.32-.44-6.57-.44h-4.17c-3.25,0-5.45.15-6.61.44-1.39.32-2.33,1.07-2.83,2.26-.55,1.28-.83,3.39-.83,6.35v2.39c0,2.96.27,5.07.83,6.35.52,1.16,1.48,1.9,2.87,2.22,1.13.29,3.32.43,6.57.43h4.17c3.22,0,5.39-.14,6.52-.43,1.42-.32,2.35-1.06,2.78-2.22.32-.61.54-1.45.65-2.52.12-1.07.17-2.35.17-3.83v-2.39Z"/>
    <path class="cls-1" d="m254.24,23.18c-.81,1.8-2.23,3-4.26,3.61,0,.03-.01.04-.04.04-.81.26-1.89.46-3.24.61s-2.98.22-4.89.22h-4.09c-1.91,0-3.54-.07-4.89-.22-1.35-.14-2.44-.35-3.28-.61-.03,0-.06-.01-.09-.04-1.04-.32-1.91-.78-2.61-1.39-.7-.61-1.26-1.35-1.7-2.22-.41-.87-.7-1.99-.89-3.35-.19-1.36-.28-2.96-.28-4.78V.57c0-.29.12-.43.35-.43h2.74c.26,0,.39.14.39.43v14.48c0,2.96.28,5.07.83,6.35.52,1.19,1.48,1.93,2.87,2.22,1.13.29,3.32.43,6.57.43h4.09c3.24,0,5.44-.14,6.57-.43,1.39-.32,2.3-1.06,2.74-2.22.32-.61.53-1.44.63-2.5s.15-2.34.15-3.85V.57c0-.29.14-.43.43-.43h2.7c.26,0,.39.14.39.43v14.48c0,3.68-.39,6.39-1.17,8.13Z"/>
    <path class="cls-1" d="m287.94,26.09c-.7.55-1.6.95-2.72,1.2-1.12.25-2.44.37-3.98.37h-13.48c-2.73,0-4.84-.62-6.35-1.87-1.77-1.39-2.65-3.42-2.65-6.09,0-.26.12-.39.35-.39h2.74c.26,0,.39.13.39.39.03.87.19,1.61.48,2.22.29.61.77,1.07,1.43,1.39.46.23,1.07.42,1.82.56.75.15,1.64.22,2.65.22h12.48c.99,0,1.81-.07,2.48-.22.67-.14,1.22-.35,1.65-.61.58-.35.98-.83,1.22-1.43s.35-1.33.35-2.17c0-1.77-.8-2.97-2.39-3.61-.64-.29-1.48-.49-2.52-.61-1.04-.12-2.26-.17-3.65-.17h-1.04c-.38,0-.83.01-1.35.04h-1.48c-.06,0-.13,0-.22.02-.09.01-.19.02-.3.02h-.56c-.61.03-1.15.04-1.61.04h-1.13c-3.71,0-6.48-.44-8.31-1.3-2.47-1.16-3.7-3.3-3.7-6.44,0-5.02,2.83-7.52,8.48-7.52h13.74c6.2,0,9.31,2.65,9.31,7.96,0,.23-.1.35-.3.35h-2.83c-.23,0-.35-.12-.35-.35-.03-.84-.19-1.57-.48-2.2-.29-.62-.77-1.09-1.43-1.41-.99-.49-2.47-.74-4.43-.74h-13.31c-.9,0-1.65.07-2.24.22s-1.06.33-1.41.56c-.81.52-1.22,1.58-1.22,3.17s.8,2.71,2.39,3.35c1.33.55,3.38.83,6.13.83h1.35c.61,0,1.33-.01,2.17-.04.09,0,.18,0,.28-.02s.21-.02.33-.02h.56c.52-.03.99-.04,1.39-.04h.96c1.97,0,3.68.12,5.13.35s2.67.57,3.65,1c2.58,1.28,3.87,3.49,3.87,6.65,0,2.93-.78,5.04-2.35,6.35Z"/>
    <path class="cls-1" d="m293.85,27.66c-.26,0-.39-.13-.39-.39V.57c0-.29.13-.43.39-.43h23.22c.23,0,.35.14.35.43v2.74c0,.29-.12.44-.35.44h-20.09v7.96h19.44c.23,0,.35.15.35.44v2.74c0,.29-.12.44-.35.44h-19.44v8.78h20.09c.23,0,.35.13.35.39v2.78c0,.26-.12.39-.35.39h-23.22Z"/>
  </g>
  <g>
    <path class="cls-2" d="m39.32,47.06l.17-2.67c.09-1.46.16-2.8.2-4.05.04-1.25.06-2.11.06-2.6v-.82c.58,0,.99.01,1.23.01.18,0,.56,0,1.12-.01l-.2,3.35-.02.77h5.05l.09-2.01c.02-.69.03-1.14.03-1.36v-.75h1.24c.11.01.48,0,1.11,0l-.25,4.05-.1,3-.03,1.76c0,.72-.01,1.17-.01,1.33h-1.16c-.14-.01-.56,0-1.23,0,.13-1.4.21-2.87.25-4.42h-5.07l-.11,2.73-.03,1.69h-1.22c-.13-.01-.51,0-1.14,0Z"/>
    <path class="cls-2" d="m64.31,39.33c.57,0,1.12.09,1.64.26s.97.42,1.33.76.64.74.82,1.23.27.99.27,1.53c0,.56-.1,1.11-.29,1.63s-.47.98-.84,1.36-.82.67-1.37.86-1.13.29-1.75.29c-.57,0-1.12-.09-1.64-.26s-.96-.43-1.33-.77-.64-.76-.84-1.25-.29-1-.29-1.54.09-1.06.26-1.56.44-.94.81-1.32.84-.68,1.41-.9,1.17-.32,1.78-.32Zm0,1.53c-.43,0-.81.11-1.15.32s-.59.52-.75.94c-.17.42-.25.87-.25,1.36,0,.43.07.81.2,1.15.14.34.36.61.66.82s.68.31,1.1.31.81-.11,1.14-.32.57-.53.74-.95.25-.88.25-1.38c0-.41-.06-.79-.19-1.12-.13-.34-.34-.61-.65-.81-.3-.2-.67-.3-1.11-.3Z"/>
    <path class="cls-2" d="m86.58,47.06c-.44,0-.77-.01-1-.01-.29,0-.62,0-.99.01v-1.23c-.12.21-.25.37-.35.5s-.24.25-.41.37c-.17.12-.35.22-.55.29-.2.07-.42.13-.68.18-.26.05-.53.07-.81.07-.56,0-1.04-.08-1.45-.24-.41-.16-.74-.4-.98-.73s-.36-.79-.36-1.4v-.16l.12-1.92.11-2.52c0-.2,0-.45,0-.76.47,0,.84.01,1.1.01s.62,0,1.02-.01l-.25,3.39c-.01.26-.03.48-.03.66s-.01.31-.01.39c0,.36.05.65.16.89s.29.41.56.54c.27.12.55.19.85.19s.56-.05.82-.16c.23-.1.43-.24.6-.42s.31-.42.42-.72c.08-.22.15-.52.19-.91.04-.27.07-.74.1-1.4.04-.8.07-1.62.09-2.44.49,0,.86.01,1.12.01.29,0,.62,0,.99-.01-.06.71-.12,1.59-.19,2.65-.06,1.06-.11,1.94-.13,2.63-.03.69-.04,1.45-.06,2.27Z"/>
    <path class="cls-2" d="m97.5,46.92l-.16-1.63c.48.2.9.34,1.23.41s.65.12.93.12.52-.03.71-.1.34-.17.43-.3.14-.27.14-.41c0-.06,0-.12-.02-.18s-.04-.11-.07-.17-.07-.12-.11-.17-.1-.11-.17-.18-.18-.15-.32-.26l-.4-.32c-.39-.3-.68-.54-.88-.71s-.37-.35-.51-.53-.24-.37-.32-.57-.11-.4-.11-.61c0-.36.11-.71.33-1.03s.54-.57.96-.72.92-.23,1.49-.23c.65,0,1.4.08,2.24.23l.1,1.55c-.57-.23-1.13-.35-1.66-.35-.29,0-.54.03-.75.09s-.37.14-.46.26-.14.25-.14.39c0,.08.01.17.04.25s.08.17.16.26.16.17.26.25.3.24.61.47.58.44.81.63.42.38.57.57.26.4.34.61.12.44.12.66c0,.37-.11.71-.34,1.03s-.57.56-1.03.74-.97.27-1.54.27c-.3,0-.66-.02-1.08-.07s-.88-.13-1.37-.25Z"/>
    <path class="cls-2" d="m120.39,45.37c-.06.29-.16.82-.27,1.57-.53.11-.99.19-1.35.23s-.74.06-1.11.06c-.65,0-1.23-.06-1.74-.19s-.96-.36-1.35-.71c-.39-.34-.67-.76-.85-1.26s-.27-1.02-.27-1.57c0-.61.11-1.2.32-1.77s.51-1.04.89-1.4c.38-.36.82-.62,1.31-.77s1-.23,1.54-.23c.5,0,.99.06,1.44.19s.84.33,1.15.62c.31.29.55.63.71,1.03s.25.85.25,1.35c0,.23-.02.47-.07.72h-5.44c0,.19-.01.34-.01.45,0,.33.06.64.17.91s.28.51.5.71.48.34.78.43.6.14.89.14c.34,0,.71-.04,1.11-.11s.87-.2,1.42-.38Zm-4.8-3h3.47c0-.23,0-.4-.02-.52s-.05-.24-.1-.39-.12-.27-.21-.38-.19-.2-.31-.28c-.12-.07-.26-.13-.41-.17s-.32-.06-.5-.06c-.21,0-.41.03-.61.1-.19.06-.37.16-.54.28-.16.12-.3.26-.4.41-.1.15-.18.3-.23.44-.05.14-.1.33-.15.57Z"/>
    <path class="cls-2" d="m148.58,39.33c.57,0,1.12.09,1.64.26s.97.42,1.33.76.64.74.82,1.23.27.99.27,1.53c0,.56-.1,1.11-.29,1.63s-.47.98-.84,1.36-.82.67-1.37.86-1.13.29-1.75.29c-.57,0-1.12-.09-1.64-.26s-.96-.43-1.33-.77-.64-.76-.84-1.25-.29-1-.29-1.54.09-1.06.26-1.56.44-.94.81-1.32.84-.68,1.41-.9,1.17-.32,1.78-.32Zm0,1.53c-.43,0-.81.11-1.15.32s-.59.52-.75.94c-.17.42-.25.87-.25,1.36,0,.43.07.81.2,1.15.14.34.36.61.66.82s.68.31,1.1.31.81-.11,1.14-.32.57-.53.74-.95.25-.88.25-1.38c0-.41-.06-.79-.19-1.12s-.34-.61-.65-.81c-.3-.2-.67-.3-1.11-.3Z"/>
    <path class="cls-2" d="m163.47,47.06l.09-1.23.22-4.83h-.92c.01-.15.03-.39.05-.72s.03-.58.03-.73h1.01v-.3c0-.53.02-.93.07-1.21s.13-.51.25-.69.29-.33.51-.46.46-.22.72-.27.53-.07.81-.07c.56,0,1.16.08,1.79.24.01.56.04,1.03.08,1.43-.48-.17-.91-.25-1.3-.25-.15,0-.3.02-.42.06s-.23.09-.32.15-.15.15-.2.25-.09.23-.11.37-.03.3-.03.49v.27h1.89c-.03.34-.06.83-.09,1.46h-1.78c-.09,1.97-.17,3.99-.22,6.05-.45,0-.81-.01-1.07-.01s-.63,0-1.06.01Z"/>
    <path class="cls-2" d="m193.07,47.06l.16-2.17.16-3.23.1-3.18h-1s-.46.01-.46.01l-1.71.05c.04-.71.06-1.25.07-1.63,1.42,0,2.92.01,4.48.01h2.66s1.43-.01,1.43-.01c-.05.71-.07,1.25-.07,1.63-.9-.04-1.75-.07-2.58-.07h-.57l-.09,1.36-.21,5.22v.87c-.02.36-.02.74-.02,1.13h-1.13c-.12-.01-.53,0-1.21,0Z"/>
    <path class="cls-2" d="m208.8,47.06l.22-3.53.06-2.05c0-.42.01-.84.01-1.27,0-.07,0-.31-.01-.71.46,0,.8.01,1.02.01.25,0,.59,0,1-.01l-.04,1.05c.19-.27.35-.47.48-.6s.28-.24.45-.34.35-.17.55-.22.41-.07.62-.07c.2,0,.4.02.61.07,0,.46.02,1.05.07,1.75-.29-.08-.56-.12-.79-.12-.29,0-.54.04-.76.13s-.42.22-.59.39c-.18.18-.32.39-.43.65-.09.21-.16.48-.21.81-.04.26-.07.7-.1,1.32-.03.62-.04,1.24-.04,1.84,0,.23,0,.53.02.88-.38,0-.72-.01-1.03-.01s-.67,0-1.1.01Z"/>
    <path class="cls-2" d="m223.99,47.06c.08-.74.13-1.36.16-1.86.05-.79.09-1.71.13-2.74.04-1.03.06-2.02.08-2.95.48,0,.84.01,1.09.01.22,0,.58,0,1.08-.01-.07.86-.12,1.68-.16,2.47s-.07,1.68-.09,2.69c-.02,1.01-.03,1.81-.03,2.4-.45,0-.81-.01-1.08-.01-.26,0-.65,0-1.17.01Zm.41-8.84c.02-.51.03-.9.03-1.17v-.24c.45,0,.82.01,1.1.01.39,0,.74,0,1.08-.01-.01.12-.02.27-.03.42l-.04.99c-.38,0-.72-.01-1.04-.01s-.68,0-1.1.01Z"/>
    <path class="cls-2" d="m243.24,45.34c-.02.2-.06.43-.11.69s-.1.58-.16.96c-.71.16-1.41.25-2.09.25-.4,0-.79-.04-1.16-.11s-.72-.21-1.04-.4-.6-.44-.84-.75-.43-.69-.55-1.13-.18-.9-.18-1.37c0-.62.1-1.22.3-1.8s.49-1.04.88-1.41.81-.61,1.29-.74,1-.2,1.58-.2c.32,0,.65.02.99.06s.74.11,1.21.23l.11,1.63c-.74-.25-1.38-.38-1.93-.38-.34,0-.65.06-.95.17s-.56.29-.77.54c-.21.25-.37.53-.46.85s-.14.65-.14.99c0,.47.07.88.22,1.22.14.34.4.61.75.8s.76.28,1.22.28c.22,0,.49-.03.81-.09s.66-.15,1.01-.28Z"/>
    <path class="cls-2" d="m258.09,39.33c.57,0,1.12.09,1.64.26s.97.42,1.33.76.64.74.82,1.23.27.99.27,1.53c0,.56-.1,1.11-.29,1.63s-.47.98-.84,1.36-.82.67-1.37.86-1.13.29-1.75.29c-.57,0-1.12-.09-1.64-.26s-.96-.43-1.33-.77-.64-.76-.84-1.25-.29-1-.29-1.54.09-1.06.26-1.56.44-.94.81-1.32.84-.68,1.41-.9,1.17-.32,1.78-.32Zm0,1.53c-.43,0-.81.11-1.15.32s-.59.52-.75.94c-.17.42-.25.87-.25,1.36,0,.43.07.81.2,1.15.14.34.36.61.66.82s.68.31,1.1.31.81-.11,1.14-.32.57-.53.74-.95.25-.88.25-1.38c0-.41-.06-.79-.19-1.12s-.34-.61-.65-.81c-.3-.2-.67-.3-1.11-.3Z"/>
    <path class="cls-2" d="m277.33,45.51c-.06.27-.15.78-.28,1.51-.42.09-.74.15-.98.18s-.46.04-.67.04c-.37,0-.69-.04-.98-.1s-.53-.19-.72-.37-.32-.38-.38-.62-.1-.48-.1-.73c0-.06,0-.15,0-.26s.02-.46.06-1.05l.17-3.09h-1.07c.02-.3.05-.77.07-1.43h1.12c.03-.29.06-.77.09-1.46l.88-.17c.18-.04.54-.12,1.06-.25-.04.67-.06,1.29-.06,1.88h1.89c-.04.67-.05,1.15-.05,1.43h-1.89c-.1,2.01-.16,3.18-.16,3.5s.03.54.1.71.17.29.32.36.31.11.48.11c.12,0,.25,0,.39-.03s.37-.07.72-.16Z"/>
  </g>
</svg>