<?xml version="1.0" encoding="UTF-8"?>
<svg id="Layer_1" data-name="Layer 1" xmlns="http://www.w3.org/2000/svg" viewBox="0 0 317.42 27.66">
  <defs>
    <style>
      .cls-1 {
        fill: #16153b;
      }
    </style>
  </defs>
  <path class="cls-1" d="m37.92,27.4c-.06.17-.17.26-.35.26h-4.09c-.12,0-.28-.19-.48-.56L24.44,4.78l-8.39,22.35c-.2.35-.38.52-.52.52h-4.3c-.23,0-.36-.09-.39-.26L0,.7v-.13C0,.28.14.13.44.13h3.17c.14,0,.32.22.52.65l9.17,23.26L22.26.74c.2-.4.38-.61.52-.61h3.22c.14,0,.32.2.52.61l9,23.31L44.79.78c.2-.43.38-.65.52-.65h3.22c.23,0,.35.14.35.43v.13l-10.96,26.7Z"/>
  <path class="cls-1" d="m78.05,27.66c-.23,0-.35-.13-.35-.39v-11.96h-22.57v11.96c0,.26-.13.39-.39.39h-2.74c-.26,0-.39-.13-.39-.39V.57c0-.29.13-.43.39-.43h2.74c.26,0,.39.14.39.43v11.13h22.57V.57c0-.29.12-.43.35-.43h2.78c.23,0,.35.14.35.43v26.7c0,.26-.12.39-.35.39h-2.78Z"/>
  <path class="cls-1" d="m84.66,27.66c-.23,0-.35-.13-.35-.39V.57c0-.29.12-.43.35-.43h2.13c.2,0,.3.14.3.43v26.7c0,.26-.1.39-.3.39h-2.13Z"/>
  <path class="cls-1" d="m105.1,3.74v23.52c0,.26-.13.39-.39.39h-2.74c-.23,0-.35-.13-.35-.39V3.74h-12.39c-.29,0-.44-.14-.44-.44V.57c0-.29.14-.43.44-.43h28.31c.29,0,.43.14.43.43v2.74c0,.29-.14.44-.43.44h-12.44Z"/>
  <path class="cls-1" d="m120.14,27.66c-.26,0-.39-.13-.39-.39V.57c0-.29.13-.43.39-.43h23.22c.23,0,.35.14.35.43v2.74c0,.29-.12.44-.35.44h-20.09v7.96h19.44c.23,0,.35.15.35.44v2.74c0,.29-.12.44-.35.44h-19.44v8.78h20.09c.23,0,.35.13.35.39v2.78c0,.26-.12.39-.35.39h-23.22Z"/>
  <path class="cls-1" d="m182.8,27.66c-.23,0-.35-.13-.35-.39v-11.96h-22.57v11.96c0,.26-.13.39-.39.39h-2.74c-.26,0-.39-.13-.39-.39V.57c0-.29.13-.43.39-.43h2.74c.26,0,.39.14.39.43v11.13h22.57V.57c0-.29.12-.43.35-.43h2.78c.23,0,.35.14.35.43v26.7c0,.26-.12.39-.35.39h-2.78Z"/>
  <path class="cls-1" d="m220.5,19.78c-.17,1.36-.46,2.49-.87,3.39-.43.87-1.02,1.61-1.74,2.24s-1.58,1.08-2.57,1.37v.04c-.84.26-1.93.46-3.26.61s-2.96.22-4.87.22h-4.22c-4.41,0-7.46-.4-9.17-1.22-1.91-.84-3.2-2.39-3.87-4.65-.23-.84-.4-2.01-.5-3.52-.1-1.51-.15-3.38-.15-5.61,0-1.83.08-3.42.24-4.78.16-1.36.44-2.48.85-3.35.44-.87,1.01-1.61,1.72-2.24.71-.62,1.59-1.11,2.63-1.46h.04c1.62-.55,4.36-.83,8.22-.83h4.22c4.23,0,7.27.42,9.13,1.26.93.4,1.72,1,2.37,1.78.65.78,1.14,1.75,1.46,2.91.17.81.32,1.97.43,3.48.12,1.51.17,3.38.17,5.61,0,1.8-.09,3.38-.26,4.74Zm-3.22-7.13c0-1.48-.06-2.75-.17-3.83-.12-1.07-.33-1.91-.65-2.52-.41-1.19-1.32-1.94-2.74-2.26-1.13-.29-3.32-.44-6.57-.44h-4.17c-3.25,0-5.45.15-6.61.44-1.39.32-2.33,1.07-2.83,2.26-.55,1.28-.83,3.39-.83,6.35v2.39c0,2.96.27,5.07.83,6.35.52,1.16,1.48,1.9,2.87,2.22,1.13.29,3.32.43,6.57.43h4.17c3.22,0,5.39-.14,6.52-.43,1.42-.32,2.35-1.06,2.78-2.22.32-.61.54-1.45.65-2.52.12-1.07.17-2.35.17-3.83v-2.39Z"/>
  <path class="cls-1" d="m254.24,23.18c-.81,1.8-2.23,3-4.26,3.61,0,.03-.01.04-.04.04-.81.26-1.89.46-3.24.61s-2.98.22-4.89.22h-4.09c-1.91,0-3.54-.07-4.89-.22-1.35-.14-2.44-.35-3.28-.61-.03,0-.06-.01-.09-.04-1.04-.32-1.91-.78-2.61-1.39-.7-.61-1.26-1.35-1.7-2.22-.41-.87-.7-1.99-.89-3.35-.19-1.36-.28-2.96-.28-4.78V.57c0-.29.12-.43.35-.43h2.74c.26,0,.39.14.39.43v14.48c0,2.96.28,5.07.83,6.35.52,1.19,1.48,1.93,2.87,2.22,1.13.29,3.32.43,6.57.43h4.09c3.24,0,5.44-.14,6.57-.43,1.39-.32,2.3-1.06,2.74-2.22.32-.61.53-1.44.63-2.5s.15-2.34.15-3.85V.57c0-.29.14-.43.43-.43h2.7c.26,0,.39.14.39.43v14.48c0,3.68-.39,6.39-1.17,8.13Z"/>
  <path class="cls-1" d="m287.94,26.09c-.7.55-1.6.95-2.72,1.2-1.12.25-2.44.37-3.98.37h-13.48c-2.73,0-4.84-.62-6.35-1.87-1.77-1.39-2.65-3.42-2.65-6.09,0-.26.12-.39.35-.39h2.74c.26,0,.39.13.39.39.03.87.19,1.61.48,2.22.29.61.77,1.07,1.43,1.39.46.23,1.07.42,1.82.56.75.15,1.64.22,2.65.22h12.48c.99,0,1.81-.07,2.48-.22.67-.14,1.22-.35,1.65-.61.58-.35.98-.83,1.22-1.43s.35-1.33.35-2.17c0-1.77-.8-2.97-2.39-3.61-.64-.29-1.48-.49-2.52-.61-1.04-.12-2.26-.17-3.65-.17h-1.04c-.38,0-.83.01-1.35.04h-1.48c-.06,0-.13,0-.22.02-.09.01-.19.02-.3.02h-.56c-.61.03-1.15.04-1.61.04h-1.13c-3.71,0-6.48-.44-8.31-1.3-2.47-1.16-3.7-3.3-3.7-6.44,0-5.02,2.83-7.52,8.48-7.52h13.74c6.2,0,9.31,2.65,9.31,7.96,0,.23-.1.35-.3.35h-2.83c-.23,0-.35-.12-.35-.35-.03-.84-.19-1.57-.48-2.2-.29-.62-.77-1.09-1.43-1.41-.99-.49-2.47-.74-4.43-.74h-13.31c-.9,0-1.65.07-2.24.22s-1.06.33-1.41.56c-.81.52-1.22,1.58-1.22,3.17s.8,2.71,2.39,3.35c1.33.55,3.38.83,6.13.83h1.35c.61,0,1.33-.01,2.17-.04.09,0,.18,0,.28-.02s.21-.02.33-.02h.56c.52-.03.99-.04,1.39-.04h.96c1.97,0,3.68.12,5.13.35s2.67.57,3.65,1c2.58,1.28,3.87,3.49,3.87,6.65,0,2.93-.78,5.04-2.35,6.35Z"/>
  <path class="cls-1" d="m293.85,27.66c-.26,0-.39-.13-.39-.39V.57c0-.29.13-.43.39-.43h23.22c.23,0,.35.14.35.43v2.74c0,.29-.12.44-.35.44h-20.09v7.96h19.44c.23,0,.35.15.35.44v2.74c0,.29-.12.44-.35.44h-19.44v8.78h20.09c.23,0,.35.13.35.39v2.78c0,.26-.12.39-.35.39h-23.22Z"/>
</svg>