<?xml version="1.0" encoding="UTF-8"?>
<svg id="Layer_1" data-name="Layer 1" xmlns="http://www.w3.org/2000/svg" xmlns:xlink="http://www.w3.org/1999/xlink" viewBox="0 0 161.78 111.78">
  <defs>
    <style>
      .cls-1 {
        fill: url(#linear-gradient-2);
      }

      .cls-2 {
        fill: url(#linear-gradient-3);
      }

      .cls-3 {
        fill: url(#linear-gradient);
      }
    </style>
    <linearGradient id="linear-gradient" x1="116.32" y1="-4.11" x2="99.83" y2="32.57" gradientUnits="userSpaceOnUse">
      <stop offset="0" stop-color="#e6c683"/>
      <stop offset=".52" stop-color="#312a1b"/>
      <stop offset="1" stop-color="#635536"/>
    </linearGradient>
    <linearGradient id="linear-gradient-2" x1="118.02" y1="-6.2" x2="101.26" y2="31.11" gradientUnits="userSpaceOnUse">
      <stop offset="0" stop-color="#e6c683"/>
      <stop offset="1" stop-color="#b39a5f"/>
    </linearGradient>
    <linearGradient id="linear-gradient-3" x1="67.3" y1="84.19" x2="123.54" y2="51.2" xlink:href="#linear-gradient-2"/>
  </defs>
  <polygon class="cls-3" points="160.44 111.78 131.94 111.78 131.01 63.12 81.08 37.09 30.39 61.77 30.56 101.1 38.84 101.12 38.66 69.21 81.22 48.33 123.31 70.18 124.06 111.78 113.75 111.78 113.17 76.41 81.36 59.97 49.37 75.79 49.63 111.78 19.76 111.78 19.6 55.14 80.95 25.53 141.02 56.98 141.93 101.42 150.12 101.44 148.99 49.72 80.81 13.86 10.86 47.34 10.96 111.78 0 111.78 0 40.67 80.67 2.38 158.86 43.67 160.44 111.78"/>
  <polygon class="cls-1" points="161.78 111.78 131.99 111.78 131.99 61.82 80.89 35.85 29.79 61.82 29.79 101.17 37.94 101.17 37.94 69.21 80.89 47.38 123.84 69.21 123.84 111.78 113.23 111.78 113.23 75.72 80.89 59.29 48.55 75.72 48.55 111.78 19.18 111.78 19.18 55.31 80.89 23.95 142.6 55.31 142.6 101.17 151.17 101.17 151.17 47.61 80.89 11.9 10.61 47.61 10.61 111.78 0 111.78 0 41.1 80.89 0 161.78 41.1 161.78 111.78"/>
  <polygon class="cls-2" points="133.16 110.61 133.16 61.1 80.89 34.54 28.62 61.1 28.62 102.35 39.11 102.35 39.11 69.93 80.89 48.7 122.67 69.93 122.67 110.61 114.4 110.61 114.4 75 80.89 57.97 47.38 75 47.38 110.61 20.35 110.61 20.35 56.03 80.89 25.27 141.43 56.03 141.43 102.35 152.34 102.35 152.34 46.89 80.89 10.59 9.44 46.89 9.44 110.61 1.17 110.61 1.17 41.82 80.89 1.32 160.61 41.82 160.61 110.61 133.16 110.61"/>
</svg>